<svg width="100%" height="100%" viewBox="0 0 1122 1121" version="1.1" xmlns="http://www.w3.org/2000/svg" xmlns:xlink="http://www.w3.org/1999/xlink" xml:space="preserve" xmlns:serif="http://www.serif.com/" style="fill-rule:evenodd;clip-rule:evenodd;stroke-linejoin:round;stroke-miterlimit:2;">
    <path d="M509.481,645.071c5.673,-6.761 14.969,-9.252 23.262,-6.234c8.294,3.019 13.814,10.902 13.814,19.728l-0,440.517c-0,5.714 -2.329,11.181 -6.449,15.139c-4.12,3.959 -9.676,6.067 -15.385,5.838c-51.927,-2.19 -104.416,-12.266 -155.851,-30.987c-51.436,-18.721 -98.122,-44.742 -139.3,-76.453c-4.517,-3.492 -7.416,-8.675 -8.027,-14.352c-0.612,-5.677 1.117,-11.358 4.788,-15.732c48.067,-57.305 209.574,-249.781 283.148,-337.464Zm65.771,13.494c-0,-8.826 5.52,-16.709 13.813,-19.728c8.294,-3.018 17.589,-0.527 23.262,6.234c73.575,87.683 235.082,280.159 283.16,337.455c3.672,4.377 5.403,10.062 4.791,15.743c-0.612,5.681 -3.513,10.867 -8.033,14.361c-41.186,31.7 -87.873,57.721 -139.308,76.442c-51.435,18.721 -103.925,28.797 -155.852,30.973c-5.705,0.229 -11.257,-1.878 -15.375,-5.834c-4.117,-3.956 -6.445,-9.419 -6.445,-15.129c-0.013,-74.795 -0.013,-326.055 -0.013,-440.517Zm-107.48,-66.108c8.692,-1.533 17.414,2.534 21.827,10.178c4.412,7.643 3.574,17.23 -2.099,23.991c-73.575,87.683 -235.082,280.159 -283.16,337.456c-3.672,4.377 -8.97,7.068 -14.671,7.452c-5.701,0.384 -11.312,-1.572 -15.538,-5.417c-38.37,-35.056 -72.102,-76.515 -99.471,-123.918c-27.368,-47.403 -46.406,-97.345 -57.566,-148.106c-1.216,-5.579 -0.105,-11.412 3.076,-16.154c3.18,-4.742 8.156,-7.982 13.78,-8.974c73.657,-13.001 321.099,-56.632 433.822,-76.508Zm166.537,34.169c-5.673,-6.761 -6.512,-16.348 -2.099,-23.991c4.413,-7.644 13.135,-11.711 21.827,-10.178c112.723,19.876 360.165,63.507 433.825,76.495c5.626,0.992 10.606,4.234 13.789,8.979c3.183,4.745 4.294,10.583 3.078,16.165c-11.174,50.758 -30.213,100.7 -57.581,148.103c-27.368,47.403 -61.1,88.862 -99.48,123.907c-4.223,3.843 -9.831,5.797 -15.528,5.414c-5.697,-0.384 -10.991,-3.073 -14.661,-7.447c-48.089,-57.288 -209.595,-249.764 -283.17,-337.447Zm-164.668,-101.284c7.643,4.413 11.71,13.135 10.177,21.826c-1.532,8.692 -8.337,15.497 -17.029,17.03c-112.723,19.876 -360.165,63.506 -433.825,76.495c-5.627,0.992 -11.415,-0.352 -16.029,-3.722c-4.614,-3.37 -7.654,-8.476 -8.421,-14.138c-6.86,-51.518 -6.051,-104.96 3.454,-158.864c9.505,-53.905 27.023,-104.401 51.102,-150.459c2.655,-5.055 7.255,-8.81 12.74,-10.398c5.485,-1.588 11.38,-0.872 16.325,1.983c64.781,37.386 282.379,163.016 381.506,220.247Zm189.378,38.856c-8.691,-1.533 -15.496,-8.338 -17.029,-17.03c-1.532,-8.691 2.535,-17.413 10.178,-21.826c99.127,-57.231 316.724,-182.861 381.499,-220.259c4.949,-2.857 10.847,-3.573 16.336,-1.984c5.488,1.588 10.092,5.346 12.748,10.404c24.067,46.065 41.585,96.561 51.09,150.466c9.504,53.904 10.313,107.346 3.439,158.862c-0.765,5.659 -3.804,10.761 -8.415,14.129c-4.611,3.368 -10.395,4.711 -16.018,3.719c-73.662,-12.975 -321.105,-56.605 -433.828,-76.481Zm-144.807,-89.068c3.019,8.294 0.528,17.589 -6.233,23.262c-6.761,5.673 -16.348,6.512 -23.991,2.099c-99.127,-57.231 -316.724,-182.86 -381.499,-220.258c-4.948,-2.857 -8.519,-7.607 -9.887,-13.155c-1.368,-5.547 -0.416,-11.413 2.637,-16.242c27.86,-43.875 62.831,-84.294 104.762,-119.478c41.93,-35.184 87.808,-62.605 135.859,-82.41c5.283,-2.166 11.221,-2.085 16.443,0.224c5.222,2.309 9.278,6.646 11.231,12.012c25.594,70.28 111.53,306.387 150.678,413.946Zm123.609,25.361c-7.644,4.413 -17.231,3.574 -23.992,-2.099c-6.76,-5.673 -9.251,-14.968 -6.233,-23.262c39.149,-107.559 125.085,-343.666 150.666,-413.951c1.954,-5.369 6.012,-9.71 11.238,-12.02c5.225,-2.311 11.167,-2.392 16.454,-0.224c48.046,19.818 93.923,47.239 135.854,82.423c41.93,35.184 76.902,75.603 104.75,119.485c3.05,4.827 4.002,10.688 2.635,16.232c-1.367,5.544 -4.935,10.291 -9.88,13.146c-64.768,37.41 -282.365,163.039 -381.492,220.27Zm-57.189,-35.175c-3.019,8.293 -10.902,13.813 -19.728,13.813c-8.825,0 -16.709,-5.52 -19.727,-13.813c-39.148,-107.559 -125.084,-343.666 -150.666,-413.951c-1.954,-5.369 -1.636,-11.303 0.882,-16.432c2.518,-5.129 7.017,-9.01 12.46,-10.748c49.545,-15.702 102.315,-24.185 157.051,-24.185c54.737,0 107.507,8.483 157.047,24.199c5.439,1.736 9.936,5.615 12.452,10.741c2.516,5.125 2.835,11.055 0.882,16.42c-25.569,70.29 -111.505,306.397 -150.653,413.956Z" style="fill:rgb(235,235,235);"/>
</svg>
