<?xml version="1.0" encoding="UTF-8" standalone="no"?>
<!DOCTYPE svg PUBLIC "-//W3C//DTD SVG 1.1//EN" "http://www.w3.org/Graphics/SVG/1.1/DTD/svg11.dtd">
<svg width="100%" height="100%" viewBox="0 0 145 146" version="1.1" xmlns="http://www.w3.org/2000/svg" xmlns:xlink="http://www.w3.org/1999/xlink" xml:space="preserve" xmlns:serif="http://www.serif.com/" style="fill-rule:evenodd;clip-rule:evenodd;stroke-linejoin:round;stroke-miterlimit:2;">
    <path d="M72.381,73.09c9.585,0.064 17.713,-3.992 23.743,-14.167c-10.752,-1.523 -19.601,-8.595 -23.87,-19.007l-0.1,-0.247c-4.23,10.547 -13.133,17.72 -23.97,19.254c6.078,10.255 14.287,14.294 23.97,14.165l0.227,0.002Zm-0.376,31.379c-6.276,13.262 -7.56,28.126 -17.621,39.964c-0.94,1.1 -2.77,0.71 -3.11,-0.7c-3.31,-13.62 7.93,-26.82 7.68,-39.39c-4.82,3.96 -16,5.77 -22.74,5.34c-12.59,-0.8 -15.97,-5 -13.2,-17.17c1.5,-6.62 5.97,-11.71 8.57,-18.3c-7.97,-5.14 -16.04,-9.4 -21.66,-17.39c-10.4,-14.76 -10.88,-31.08 -9.17,-47.77c0.67,-6.56 6.56,-8.82 12.68,-9c22.43,-0.65 42.31,4.56 55.63,24.61c0.458,0.69 1.488,2.462 3.09,5.314l0.574,-1.019c1.277,-2.259 2.115,-3.691 2.516,-4.295c13.32,-20.05 33.2,-25.26 55.63,-24.61c6.12,0.18 12.01,2.44 12.68,9c1.71,16.69 1.23,33.01 -9.17,47.77c-5.62,7.99 -13.69,12.25 -21.66,17.39c2.6,6.59 7.07,11.68 8.57,18.3c2.77,12.17 -0.61,16.37 -13.2,17.17c-6.74,0.43 -17.92,-1.38 -22.74,-5.34c-0.25,12.57 10.99,25.77 7.68,39.39c-0.34,1.41 -2.17,1.8 -3.11,0.7c-10.14,-11.931 -11.364,-26.935 -17.77,-40.277l-0.149,0.313Z" style="fill:white;fill-rule:nonzero;"/>
</svg>
