<?xml version="1.0" encoding="UTF-8" standalone="no"?>
<!DOCTYPE svg PUBLIC "-//W3C//DTD SVG 1.1//EN" "http://www.w3.org/Graphics/SVG/1.1/DTD/svg11.dtd">
<svg width="100%" height="100%" viewBox="0 0 109 152" version="1.1" xmlns="http://www.w3.org/2000/svg" xmlns:xlink="http://www.w3.org/1999/xlink" xml:space="preserve" xmlns:serif="http://www.serif.com/" style="fill-rule:evenodd;clip-rule:evenodd;stroke-linejoin:round;stroke-miterlimit:2;">
    <path d="M27.534,143.582c-18.04,-4.97 -32.15,-33.23 -26.12,-56.44c2.47,-9.5 6.73,-18.04 13.15,-25.42c5.67,-6.52 11.56,-12.86 17.44,-19.19c16.45,-17.72 16.84,-21.84 3.67,-40.92c16.66,-6.33 35.79,6.81 36.26,24.87c0.23,8.92 -3.12,16.84 -6.55,24.78c-2.86,6.61 -3.94,13.22 1.46,21.46c0.78,-7.78 0.25,-13.98 5.16,-19.12c5.44,-5.7 9.99,-7.61 18.26,-5.74c-8,6.58 -6.97,10.9 6.52,29.92c12.34,17.41 15.7,32.35 6.6,48.54c-9.75,17.35 -30.86,27.88 -50.31,24.97c1.32,-2.15 5,-3.89 7.7,-5.48c12.95,-7.61 14.91,-19.54 4.94,-30.71c-3.31,-3.71 -7.06,-7.04 -10.68,-10.47c-14.71,-13.95 -16.33,-16.83 -20.12,-36.25c-20.01,10.96 -23.87,46.75 -7.38,75.23l0,-0.03Z" style="fill:white;fill-rule:nonzero;"/>
</svg>
