<?xml version="1.0" encoding="UTF-8" standalone="no"?>
<!DOCTYPE svg PUBLIC "-//W3C//DTD SVG 1.1//EN" "http://www.w3.org/Graphics/SVG/1.1/DTD/svg11.dtd">
<svg width="100%" height="100%" viewBox="0 0 141 145" version="1.1" xmlns="http://www.w3.org/2000/svg" xmlns:xlink="http://www.w3.org/1999/xlink" xml:space="preserve" xmlns:serif="http://www.serif.com/" style="fill-rule:evenodd;clip-rule:evenodd;stroke-linejoin:round;stroke-miterlimit:2;">
    <path d="M140.34,83.373c-0.2,22.43 -7.79,41.62 -25.21,56.25c-8.51,7.14 -11.15,6.33 -14.39,-3.8c-6.75,-21.15 -13.17,-42.41 -20.18,-63.48c-2.61,-7.83 -0.79,-11.92 7.38,-13.71c11.17,-2.45 21.18,-7.45 30.21,-14.58c7.71,-6.09 11.86,-4.82 15.86,4.29c4.91,11.17 6.33,22.98 6.33,35.02l0,0.01Zm-140.34,4.43c-0.01,-17.4 1.6,-28.85 6.39,-39.68c3.81,-8.63 8.14,-10.12 15.18,-4.54c9.56,7.57 20.13,12.71 32,15.35c6.4,1.43 8.85,5.18 6.73,11.74c-7.23,22.39 -14.49,44.78 -21.4,67.27c-2.38,7.73 -5.96,7.47 -11.48,3.27c-19.56,-14.89 -27.26,-35.22 -27.42,-53.41Zm70.565,34.37c4.028,-0.22 7.646,-0.37 11.265,-0.64c4.75,-0.35 6.18,2.6 7.01,6.54c0.84,3.97 -0.53,6.29 -4.39,7.43c-9.41,2.78 -18.79,2.72 -28.22,0.13c-4.4,-1.21 -5.59,-3.84 -4.63,-8.17c0.94,-4.23 3.05,-6.32 7.53,-5.92c3.938,0.35 7.886,0.44 11.435,0.63l-0.005,-0l0.01,-0l-0.005,-0Zm-0.515,-8.35c-4.86,-0.9 -12.01,1.45 -11.66,-7c0.31,-7.45 5.28,-9.23 12.43,-9.21c7.21,0.02 11.05,3 11.1,9.52c0.07,8.37 -7.16,5.71 -11.86,6.69l-0.01,-0Zm0.02,-65.7c-15.42,0.42 -28.7,-4.76 -40.56,-14.1c-6.17,-4.85 -7.07,-9.34 -1.07,-15.53c23.76,-24.54 59.04,-24.66 83.13,-0.34c6.45,6.51 5.42,11.16 -1.15,16.22c-11.96,9.2 -25.27,14.31 -40.34,13.75l-0.01,-0Z" style="fill:white;fill-rule:nonzero;"/>
</svg>
