<?xml version="1.0" encoding="UTF-8" standalone="no"?>
<!DOCTYPE svg PUBLIC "-//W3C//DTD SVG 1.1//EN" "http://www.w3.org/Graphics/SVG/1.1/DTD/svg11.dtd">
<svg width="100%" height="100%" viewBox="0 0 155 153" version="1.1" xmlns="http://www.w3.org/2000/svg" xmlns:xlink="http://www.w3.org/1999/xlink" xml:space="preserve" xmlns:serif="http://www.serif.com/" style="fill-rule:evenodd;clip-rule:evenodd;stroke-linejoin:round;stroke-miterlimit:2;">
    <path d="M76.594,152.139c-4.2,0 -16.12,-4.16 -23.83,-7.01c-14.62,-5.41 -29.03,-11.48 -43.23,-17.96c-0.67,-0.3 -3.56,-1.99 -5.19,-2.94c-5.04,-2.9 -5.41,-3.74 -2.57,-9.25c1.9,-3.68 2.7,-3.31 7.75,-0.99c16.01,7.32 32.38,13.67 48.71,20.15c16.33,6.48 21.09,6.87 37.52,0.04c15.91,-6.61 31.68,-13.54 47.8,-19.73c4.87,-1.87 6.88,-3.86 9.14,1.33c1.81,4.15 3.83,5.53 -3.76,8.84c-16.74,7.31 -33.07,15.45 -50.36,21.36c-7.2,2.46 -17.23,6.15 -21.98,6.15l0,0.01Zm-1.33,-25.09c-2.52,-0.77 -6.4,-1.66 -10.06,-3.12c-16.93,-6.77 -33.8,-13.68 -50.68,-20.59c-1.52,-0.62 -2.94,-1.54 -4.37,-2.37c-7.42,-4.3 -7.7,-9.21 -0.2,-12.86c20.58,-10.01 41.94,-18.12 63.61,-25.43c2.66,-0.9 5.15,-0.6 7.77,0.29c21.03,7.14 41.73,15.08 61.78,24.65c0.9,0.43 1.91,0.68 2.71,1.23c4.81,3.35 4.98,8.12 -0.08,11.12c-4.54,2.69 -9.52,4.66 -14.4,6.73c-16.16,6.86 -32.34,13.7 -49,19.3c-1.91,0.64 -3.72,1.37 -7.09,1.04l0.01,0.01Zm-6.85,-85.3c0.04,8.09 -1.04,9.17 -9.13,9.18c-8.19,0 -9.46,-1.21 -9.42,-8.99c0.04,-7.6 0.99,-8.41 9.78,-8.36c8.16,0.05 8.74,0.59 8.78,8.16l-0.01,0.01Zm65.92,-11.82c-0.14,10.17 -0.34,10.34 -11.99,10.25c-10,-0.08 -10.24,-0.37 -10.14,-12.06c0.09,-10.18 0.35,-10.41 11.95,-10.24c10.14,0.15 10.34,0.38 10.18,12.05Zm-91.71,-16.53c0,9.493 -4.7,14.237 -14.1,14.23c-1.33,0 -2.65,0.02 -3.98,-0.02c-8.78,-0.28 -9.26,-0.78 -9.52,-9.97c-0.34,-12.027 5.553,-17.903 17.68,-17.63c9.44,0.22 9.76,0.54 9.92,10.4c0.02,0.99 0,1.99 0,2.98l0,0.01Z" style="fill:white;fill-rule:nonzero;"/>
</svg>
