<?xml version="1.0" encoding="UTF-8" standalone="no"?>
<!DOCTYPE svg PUBLIC "-//W3C//DTD SVG 1.1//EN" "http://www.w3.org/Graphics/SVG/1.1/DTD/svg11.dtd">
<svg width="100%" height="100%" viewBox="0 0 141 156" version="1.1" xmlns="http://www.w3.org/2000/svg" xmlns:xlink="http://www.w3.org/1999/xlink" xml:space="preserve" xmlns:serif="http://www.serif.com/" style="fill-rule:evenodd;clip-rule:evenodd;stroke-linejoin:round;stroke-miterlimit:2;">
    <path d="M117.739,28.88c19.488,0.859 29.585,10.85 16.68,34.6c-5.004,9.208 -4.92,18.19 -0.37,27.66c10.23,21.3 3.62,33.41 -19.59,35.57c-11.16,1.04 -19.22,5.65 -25.41,15.11c-11.71,17.9 -27.71,17.77 -39.56,-0.25c-5.98,-9.09 -13.76,-13.73 -24.55,-14.79c-24.07,-2.36 -30.54,-13.99 -20.14,-35.92c4.32,-9.12 4.22,-17.7 -0.14,-26.79c-10.21,-21.31 -3.62,-33.41 19.59,-35.57c11.15,-1.04 19.23,-5.65 25.41,-15.11c11.49,-17.58 27.83,-17.94 38.95,-0.54c7.09,11.09 16.705,15.482 29.13,16.03Zm-48.349,-5.126c0.252,0.317 0.488,0.64 0.681,0.943c0.001,0.001 0.001,0.002 0.002,0.003c11.29,17.659 26.365,25.114 46.051,26.123c-0.319,0.744 -0.67,1.479 -1.036,2.153c-8.627,15.878 -8.715,31.362 -0.869,47.691c0.513,1.068 0.997,2.381 1.399,3.597c-1.059,0.242 -2.196,0.447 -3.198,0.54c-0.001,0 -0.002,0 -0.003,0.001c-18.373,1.712 -31.587,9.395 -41.777,24.969c-0.001,0.001 -0.001,0.001 -0.002,0.002c-0.342,0.524 -0.791,1.092 -1.252,1.619c-0.557,-0.616 -1.109,-1.295 -1.516,-1.913c-0,-0.001 -0.001,-0.002 -0.002,-0.004c-9.936,-15.103 -22.85,-22.832 -40.778,-24.593c-0.002,-0 -0.003,-0 -0.004,-0c-1.235,-0.121 -2.642,-0.388 -3.922,-0.675c0.433,-1.318 0.957,-2.751 1.513,-3.923c0.001,-0.003 0.003,-0.006 0.004,-0.009c7.373,-15.565 7.255,-30.209 -0.186,-45.723c-0.513,-1.071 -0.998,-2.39 -1.4,-3.611c1.057,-0.242 2.192,-0.446 3.192,-0.539c0.002,-0 0.003,-0 0.005,-0c18.362,-1.713 31.608,-9.405 41.785,-24.983c0.35,-0.536 0.825,-1.125 1.313,-1.668Z" style="fill:white;"/>
</svg>
