<?xml version="1.0" encoding="UTF-8" standalone="no"?>
<!DOCTYPE svg PUBLIC "-//W3C//DTD SVG 1.1//EN" "http://www.w3.org/Graphics/SVG/1.1/DTD/svg11.dtd">
<svg width="100%" height="100%" viewBox="0 0 146 139" version="1.1" xmlns="http://www.w3.org/2000/svg" xmlns:xlink="http://www.w3.org/1999/xlink" xml:space="preserve" xmlns:serif="http://www.serif.com/" style="fill-rule:evenodd;clip-rule:evenodd;stroke-linejoin:round;stroke-miterlimit:2;">
    <path d="M88.65,126.11c-5.22,3.98 -10.06,7.68 -15.77,12.03c-19.71,-14.37 -38.84,-28.32 -61.19,-44.61c22.17,-6.41 40.89,-11.82 61.12,-17.66c5.46,17.32 10.48,33.22 15.85,50.24l-0.01,0Zm-9.85,-88.2l46.8,-14.93l20.38,62.07l-44.8,32.36l-22.38,-79.5Zm-78.8,47.14l27.59,-85.05l89.4,0l3.65,7.69l-58.22,20.05l7.26,37.43l-69.68,19.88Zm106.85,-43.99c5.745,0 10.41,4.665 10.41,10.41c-0,5.745 -4.665,10.41 -10.41,10.41c-5.745,0 -10.41,-4.665 -10.41,-10.41c-0,-5.745 4.665,-10.41 10.41,-10.41Zm-64.62,-33.37c4.217,0 7.64,3.423 7.64,7.64c-0,4.217 -3.423,7.64 -7.64,7.64c-4.217,0 -7.64,-3.423 -7.64,-7.64c-0,-4.217 3.423,-7.64 7.64,-7.64Z" style="fill:white;"/>
</svg>
