<?xml version="1.0" encoding="UTF-8" standalone="no"?>
<!DOCTYPE svg PUBLIC "-//W3C//DTD SVG 1.1//EN" "http://www.w3.org/Graphics/SVG/1.1/DTD/svg11.dtd">
<svg width="100%" height="100%" viewBox="0 0 144 144" version="1.1" xmlns="http://www.w3.org/2000/svg" xmlns:xlink="http://www.w3.org/1999/xlink" xml:space="preserve" xmlns:serif="http://www.serif.com/" style="fill-rule:evenodd;clip-rule:evenodd;stroke-linejoin:round;stroke-miterlimit:2;">
    <path d="M143.41,41.97l-19.62,-19.62l3.55,23.38c0.03,0.19 -0.2,0.31 -0.34,0.17l-29.18,-29.18c-0.14,-0.14 -0.02,-0.37 0.17,-0.34l23.38,3.55l-19.87,-19.87c-0,0 -0.09,-0.06 -0.14,-0.06l-59.26,0c-0.05,0 -0.1,0.02 -0.14,0.06l-41.9,41.9c0,0 -0.06,0.09 -0.06,0.14l0,59.26c0,0.05 0.02,0.1 0.06,0.14l19.53,19.53l-9.71,-45.05c-0.04,-0.19 0.2,-0.32 0.34,-0.18l57.77,57.77c0.14,0.14 0.01,0.38 -0.18,0.34l-45.05,-9.71l19.21,19.21c0,-0 0.09,0.06 0.14,0.06l59.26,-0c0.05,-0 0.1,-0.02 0.14,-0.06l19.24,-19.24l-45.14,9.75c-0.19,0.04 -0.32,-0.2 -0.18,-0.34l57.76,-57.76c0.14,-0.14 0.38,-0.01 0.34,0.18l-9.75,45.14l19.64,-19.64c0,0 0.06,-0.09 0.06,-0.14l0,-59.26c0,-0.05 -0.02,-0.1 -0.06,-0.14l-0.01,0.01Z" style="fill:white;fill-rule:nonzero;"/>
</svg>
