<?xml version="1.0" encoding="UTF-8" standalone="no"?>
<!DOCTYPE svg PUBLIC "-//W3C//DTD SVG 1.1//EN" "http://www.w3.org/Graphics/SVG/1.1/DTD/svg11.dtd">
<svg width="100%" height="100%" viewBox="0 0 134 170" version="1.1" xmlns="http://www.w3.org/2000/svg" xmlns:xlink="http://www.w3.org/1999/xlink" xml:space="preserve" xmlns:serif="http://www.serif.com/" style="fill-rule:evenodd;clip-rule:evenodd;stroke-linejoin:round;stroke-miterlimit:2;">
    <path d="M49.25,17.29c6.05,-5.88 11.4,-11.09 17.77,-17.29c5.97,6.13 11.17,11.47 17.14,17.59c-4.92,5.79 -9.31,10.96 -14.74,17.36c12.8,7.44 26.4,16.32 40.07,24.27l-0,-23.26l24.01,-0c0,7.81 0.09,16.68 0.09,25.33c-21.7,-0 -5.65,0.26 -22.24,0.26c-0,15.36 0.44,31.53 0.44,47.51l21.79,0l0,24.18l-23.94,0l-0,-21.88c-13.22,7.56 -27.06,15.34 -40.38,22.95c5.13,5.9 9.4,10.79 14.9,17.11c-5.37,5.66 -10.66,11.23 -17.36,18.29c-5.96,-6.39 -11.21,-12.02 -17.12,-18.36c4.98,-5.7 9.44,-10.8 14.84,-16.97c-13.25,-7.61 -27,-15.35 -40.37,-23.03l-0,22.22l-24.05,0l-0,-24.46l22.03,0c-0,-15.56 -0.08,-32.89 -0.08,-48.86l-22.05,-0.08l0,-24.22l24.22,0c0,21.72 0,2.88 0,21.24c13.09,-7.41 26.69,-14.32 40.16,-21.95c-5.03,-5.96 -9.38,-11.12 -15.15,-17.95l0.02,0Zm-13.9,48.12l0,32.06l10.66,0l0,-26.34l22.64,-12.82l-6.03,-7.93l-27.27,15.03Z" style="fill:rgb(251,253,253);fill-rule:nonzero;"/>
</svg>
