<?xml version="1.0" encoding="UTF-8" standalone="no"?>
<!DOCTYPE svg PUBLIC "-//W3C//DTD SVG 1.1//EN" "http://www.w3.org/Graphics/SVG/1.1/DTD/svg11.dtd">
<svg width="100%" height="100%" viewBox="0 0 124 136" version="1.1" xmlns="http://www.w3.org/2000/svg" xmlns:xlink="http://www.w3.org/1999/xlink" xml:space="preserve" xmlns:serif="http://www.serif.com/" style="fill-rule:evenodd;clip-rule:evenodd;stroke-linejoin:round;stroke-miterlimit:2;">
    <path d="M120.643,91.009c0.55,0.18 0.95,0.71 1.01,1.29c1.74,16.71 -0.12,19.56 -15.05,25.28c-18.32,7.01 -37.09,12.47 -56.28,16.61c-6.49,1.4 -12.82,1.23 -18.55,-1.56c-9.55,-4.66 -18.43,-10.58 -26.79,-17.18c-2.9,-2.29 -4.35,-5.25 -4.45,-8.92c-0.16,-5.96 0.32,-11.94 -0,-17.9c-0.29,-5.3 1.7,-8.26 7.01,-8.25c13.98,0.02 27.96,-0 41.94,0.07c2.73,0.01 5.69,0.39 6.17,3.76c0.85,6.07 5.16,6 9.64,6c14.98,-0.02 29.96,-0.02 44.94,0.04c3.34,0.01 6.74,-0.4 10.4,0.77l0.01,-0.01Zm-24.47,-8.91c-6.65,-0 -13.31,-0.04 -19.96,0.01c-6.12,0.05 -9.28,-2.95 -9.44,-9.04c-0.09,-3.32 -0.23,-6.66 -0,-9.97c0.36,-5.39 3.15,-8.73 8.81,-8.76c13.64,-0.08 27.28,0.01 40.91,-0.04c4.22,-0.02 5.58,2.08 6.03,6.1c2.32,20.72 1.48,21.77 -19.36,21.77l-6.99,-0l-0,-0.07Zm-96.11,-49.55c-0,-7.65 -0.17,-15.31 0.05,-22.96c0.23,-8.25 1.29,-9.16 9.29,-9.49c12.35,-0.52 13.55,0.62 13.57,13.24c0.03,14.31 0.11,28.62 -0.05,42.92c-0.1,8.6 -2.14,10.41 -10.71,10.59c-9.27,0.18 -11.82,-1.83 -12.08,-10.34c-0.24,-7.98 -0.05,-15.97 -0.05,-23.96l-0.02,-0Zm56,1.15c-0,7.98 0.25,15.96 -0.07,23.93c-0.3,7.37 -2.74,9.14 -11.13,9.21c-8.7,0.07 -11.35,-1.5 -11.5,-8.78c-0.36,-16.61 -0.09,-33.23 -0.15,-49.85c-0.02,-5.98 3.01,-8.41 8.72,-8.11c1.33,0.07 2.66,-0.04 3.99,-0c8.85,0.21 9.91,1.08 10.13,9.67c0.2,7.97 0.04,15.95 0.04,23.93l-0.03,-0Zm66.41,-10.38l-0,16.91c-0,4.05 -1.9,6.18 -6.11,5.93c-0.66,-0.04 -1.33,-0 -1.99,0.03c-9.9,0.406 -14.854,-4.287 -14.86,-14.08c-0,-7.3 -0.1,-14.6 0.04,-21.89c0.17,-9.07 1.26,-10.04 10.57,-10.2c1.66,-0.03 3.32,0.07 4.97,0.05c4.94,-0.05 7.33,2.49 7.37,7.32c0.04,5.31 -0,10.61 -0,15.92l0.01,0.01Zm-33.1,0.32c-0,5.33 -0.1,10.66 0.03,15.99c0.12,4.68 -2.05,6.48 -6.64,6.51c-19.31,0.12 -16.06,0.62 -16.34,-14.77c-0.14,-7.66 0.11,-15.33 0.03,-22.99c-0.06,-5.9 2.76,-8.56 8.59,-8.29c2.33,0.11 4.66,0.06 6.99,0.05c5.03,-0.01 7.23,2.72 7.26,7.5c0.03,5.33 -0,10.66 -0,15.99l0.06,-0l0.02,0.01Z" style="fill:white;fill-rule:nonzero;"/>
</svg>
