<?xml version="1.0" encoding="UTF-8" standalone="no"?>
<!DOCTYPE svg PUBLIC "-//W3C//DTD SVG 1.1//EN" "http://www.w3.org/Graphics/SVG/1.1/DTD/svg11.dtd">
<svg width="100%" height="100%" viewBox="0 0 144 144" version="1.1" xmlns="http://www.w3.org/2000/svg" xmlns:xlink="http://www.w3.org/1999/xlink" xml:space="preserve" xmlns:serif="http://www.serif.com/" style="fill-rule:evenodd;clip-rule:evenodd;stroke-linejoin:round;stroke-miterlimit:2;">
    <path d="M73.694,143.791c-36.345,-0 -68.105,-25.318 -73.02,-61.329c-0.781,-5.724 -0.905,-11.588 -0.257,-17.328c0.921,-8.163 5.423,-15.783 5.619,-23.996c0.107,-4.461 -2.684,-9.94 -3.134,-14.148c-0.844,-7.895 2.651,-15.073 8.432,-20.289c5.904,-5.328 13.311,-7.827 21.198,-6.219c3.788,0.773 9.217,3.925 13.377,4.168c8.675,0.506 17.111,-3.718 25.801,-3.738c9.174,-0.02 18.156,4.312 27.295,3.52c7.691,-0.666 13.552,-5.406 21.644,-4.187c12.674,1.909 22.663,14.754 20.925,27.494c-1.04,7.621 -4.509,11.46 -2.48,19.232c3.487,13.363 6.357,24.32 3.764,38.299c-6.009,32.402 -32.819,58.521 -69.164,58.521Zm-52.49,-70.92c-1.34,-26.26 21.93,-51.19 50.24,-51.09c28.36,0.09 50.55,22.02 51.35,50.13c0.68,24.05 -19.28,50.72 -50.39,51.16c-27.94,0.4 -51.07,-22.27 -51.2,-50.2Z" style="fill:white;"/>
</svg>
