<?xml version="1.0" encoding="UTF-8" standalone="no"?>
<!DOCTYPE svg PUBLIC "-//W3C//DTD SVG 1.1//EN" "http://www.w3.org/Graphics/SVG/1.1/DTD/svg11.dtd">
<svg width="100%" height="100%" viewBox="0 0 99 157" version="1.1" xmlns="http://www.w3.org/2000/svg" xmlns:xlink="http://www.w3.org/1999/xlink" xml:space="preserve" xmlns:serif="http://www.serif.com/" style="fill-rule:evenodd;clip-rule:evenodd;stroke-linejoin:round;stroke-miterlimit:2;">
    <path d="M34.562,156.347c-4.35,-1.07 -3.09,-4.21 -2.41,-6.43c3.08,-10.15 6.21,-20.3 9.82,-30.28c2.33,-6.45 1.96,-10.95 -4.46,-15.2c-10.8,-7.15 -20.8,-15.48 -31.36,-23c-6.61,-4.71 -7.92,-10.03 -3.8,-17.02c11.64,-19.74 23.22,-39.49 36.68,-58.1c5.15,-7.12 10.27,-8.11 17.65,-3.53c11.82,7.34 23.91,14.25 36.04,21.07c7.09,3.99 7.59,8.15 2.06,14.06c-8.19,8.74 -15.62,18.2 -24.02,26.73c-5.23,5.31 -4.13,8.76 0.94,12.93c6.41,5.28 12.52,10.94 18.74,16.46c3.68,3.27 4.04,6.56 0.24,10.13c-17.7,16.64 -35.35,33.33 -53.04,49.98c-0.94,0.89 -2.12,1.53 -3.08,2.21l-0,-0.01Z" style="fill:white;fill-rule:nonzero;"/>
</svg>
