<?xml version="1.0" encoding="UTF-8" standalone="no"?>
<!DOCTYPE svg PUBLIC "-//W3C//DTD SVG 1.1//EN" "http://www.w3.org/Graphics/SVG/1.1/DTD/svg11.dtd">
<svg width="100%" height="100%" viewBox="0 0 146 144" version="1.1" xmlns="http://www.w3.org/2000/svg" xmlns:xlink="http://www.w3.org/1999/xlink" xml:space="preserve" xmlns:serif="http://www.serif.com/" style="fill-rule:evenodd;clip-rule:evenodd;stroke-linejoin:round;stroke-miterlimit:2;">
    <path d="M142.192,133.15c2.36,-1.5 3.12,-3.08 3.28,-4.91c0.05,-0.38 0.08,-0.77 0.08,-1.18c-0,-0.27 -0.03,-0.52 -0.06,-0.76c-0.16,-2.7 -1.26,-4.54 -8.23,-6.81c-1.21,-0.39 -2.54,-0.78 -3.97,-1.17c-7.9,-2.37 -15.56,-3.78 -24.24,-4.53c-3.43,-0.44 -6.99,-0.84 -10.63,-1.18c-1.71,-0.52 -2.31,-1.28 -2.72,-2.44c-0.55,-2.95 -1.65,-5.7 -3.19,-8.15c-3.79,-6.49 -9.84,-10.25 -17.82,-10.82c-0.49,-0.04 -0.98,-0.07 -1.48,-0.08l-0.47,0c-0.27,0 -0.53,0.01 -0.8,0.02c-9.24,0.17 -16.18,4.64 -19.99,12.7c-0.62,1.22 -1.15,2.49 -1.55,3.82c-0.93,2.47 -1.59,3.97 -3.63,4.86c-4.92,0.42 -9.65,0.95 -14.1,1.57c-4.28,0.46 -8.51,1.21 -12.7,2.17c-5.5,1.14 -10.17,2.43 -13.73,3.8c-0.53,0.19 -1.04,0.4 -1.54,0.63c-4.26,1.9 -4.63,3.67 -4.66,5.88c-0.02,0.26 -0.05,0.52 -0.04,0.8c-0,0.16 0.03,0.31 0.04,0.47c0.06,2.53 0.72,4.56 5.71,6.64c0.94,0.41 1.93,0.76 2.94,1.08c1.65,0.55 3.48,1.08 5.48,1.59c8.46,2.29 17.02,3.57 25.62,4.37c10.22,1.13 21.52,1.79 32.87,1.8l0.1,0c10.47,0 20.99,-0.59 30.65,-1.59c10.15,-0.84 20.2,-2.3 30.08,-5.18c0.46,-0.13 0.91,-0.26 1.35,-0.39c0.09,-0.03 0.17,-0.05 0.26,-0.08c2.29,-0.71 4.79,-1.49 6.76,-2.73c0.08,-0.05 0.16,-0.1 0.25,-0.15c0.02,-0.02 0.05,-0.03 0.07,-0.05l0.01,0Zm-38.08,-85.15c9.272,0 16.8,7.528 16.8,16.8c-0,9.272 -7.528,16.8 -16.8,16.8c-9.272,0 -16.8,-7.528 -16.8,-16.8c-0,-9.272 7.528,-16.8 16.8,-16.8Zm-56.92,-48c15.564,0 28.2,12.636 28.2,28.2c-0,15.564 -12.636,28.2 -28.2,28.2c-15.564,0 -28.2,-12.636 -28.2,-28.2c-0,-15.564 12.636,-28.2 28.2,-28.2Z" style="fill:white;"/>
</svg>
