<?xml version="1.0" encoding="UTF-8" standalone="no"?>
<!DOCTYPE svg PUBLIC "-//W3C//DTD SVG 1.1//EN" "http://www.w3.org/Graphics/SVG/1.1/DTD/svg11.dtd">
<svg width="100%" height="100%" viewBox="0 0 94 156" version="1.1" xmlns="http://www.w3.org/2000/svg" xmlns:xlink="http://www.w3.org/1999/xlink" xml:space="preserve" xmlns:serif="http://www.serif.com/" style="fill-rule:evenodd;clip-rule:evenodd;stroke-linejoin:round;stroke-miterlimit:2;">
    <path d="M46.756,0.006c0.09,-0.004 0.182,-0.006 0.275,-0.006c0.301,0 0.587,0.062 0.854,0.181c2.366,0.654 3.685,3.064 4.566,6.794c4.271,18.087 12.585,41.839 24.538,59.496c5.808,8.58 16.523,22.135 16.523,44.779c0,22.135 -16.771,43.507 -45.245,44.458c-0.345,0.022 -0.691,0.033 -1.037,0.033l-0.948,-0c-0.345,-0 -0.691,-0.011 -1.037,-0.033c-28.474,-0.951 -45.245,-22.323 -45.245,-44.458c-0,-22.644 10.715,-36.199 16.524,-44.779c11.952,-17.657 20.266,-41.409 24.537,-59.496c0.881,-3.73 2.201,-6.14 4.566,-6.794c0.268,-0.119 0.553,-0.181 0.855,-0.181c0.092,-0 0.184,0.002 0.274,0.006Zm29.815,117.833c1.499,-0.626 3.229,-0.222 4.296,1.003c1.066,1.225 1.228,2.995 0.401,4.392c-6.9,11.817 -19.718,19.767 -34.378,19.767c-14.659,-0 -27.477,-7.95 -34.372,-19.769c-0.825,-1.396 -0.663,-3.163 0.401,-4.386c1.065,-1.223 2.793,-1.627 4.289,-1.003c9.179,3.676 19.196,5.701 29.682,5.701c10.487,0 20.504,-2.025 29.681,-5.705Z" style="fill:white;"/>
</svg>
