<?xml version="1.0" encoding="UTF-8" standalone="no"?>
<!DOCTYPE svg PUBLIC "-//W3C//DTD SVG 1.1//EN" "http://www.w3.org/Graphics/SVG/1.1/DTD/svg11.dtd">
<svg width="100%" height="100%" viewBox="0 0 137 149" version="1.1" xmlns="http://www.w3.org/2000/svg" xmlns:xlink="http://www.w3.org/1999/xlink" xml:space="preserve" xmlns:serif="http://www.serif.com/" style="fill-rule:evenodd;clip-rule:evenodd;stroke-linejoin:round;stroke-miterlimit:2;">
    <path d="M90.344,92.771c-15.72,18.66 -36.72,18.54 -56.82,20.49c-0.88,0.09 -1.72,0.46 -2.36,1.09c-10.27,10.09 -15.84,24.13 -28,33.64c-0.55,0.43 -1.39,0.2 -1.63,-0.45c-2.25,-6.09 -1.57,-11.4 -0.81,-16.39c4.26,-28.02 11.13,-55.4 21.88,-81.66c5.83,-14.23 15.13,-24.51 31.59,-27.2c24.36,-3.98 47.33,-13.03 70.58,-20.97c2.96,-1.01 6.05,-1.96 9.13,-0.76c0.97,0.38 1.74,1.18 2.02,2.18c0.91,3.25 -0.92,5.89 -2.54,8.68c-13.5,23.36 -34.25,37.51 -58.92,46.81c-3.54,1.33 -7.9,2.81 -10.91,5.61c-0.32,0.3 -0.08,0.86 0.35,0.88c17.48,0.74 32.76,-5.7 48.82,-9.24c0.55,-0.12 1.04,0.45 0.84,0.98c-7.05,17.94 -23.79,26.99 -39.9,32.15c-6.3,2.02 -9.35,2.46 -20.33,3.46c-0.37,0.03 -0.41,0.49 -0.11,0.57c15.87,4 21.78,-0.55 36.34,-1.55c0.83,-0.06 1.3,1.02 0.77,1.66l0.01,0.02Z" style="fill:white;fill-rule:nonzero;"/>
</svg>
