<?xml version="1.0" encoding="UTF-8" standalone="no"?>
<!DOCTYPE svg PUBLIC "-//W3C//DTD SVG 1.1//EN" "http://www.w3.org/Graphics/SVG/1.1/DTD/svg11.dtd">
<svg width="100%" height="100%" viewBox="0 0 145 103" version="1.1" xmlns="http://www.w3.org/2000/svg" xmlns:xlink="http://www.w3.org/1999/xlink" xml:space="preserve" xmlns:serif="http://www.serif.com/" style="fill-rule:evenodd;clip-rule:evenodd;stroke-linejoin:round;stroke-miterlimit:2;">
    <path d="M18.984,0.084c7.49,7.559 17.747,14.946 27.036,16.926c-1.38,2.84 -1.88,5.07 -2.37,8.23c-2.78,17.82 -1.19,34.63 12.15,48.3c10.06,10.31 23.45,10.28 33.51,-0.09c13.29,-13.71 14.91,-30.51 12.01,-48.33c-0.43,-2.62 -1.93,-9.15 -1.88,-9.24c0.1,-0.18 -0,-0.08 1,-0.38c6.48,-1.51 18.62,-7.99 26.05,-15.5c15.36,11.88 23.65,36.91 14.18,56.85c-12.94,27.24 -43.16,51.76 -81.43,43.96c-29.15,-5.94 -49.04,-24.49 -57.95,-53.21c-4.14,-13.329 1.668,-35.975 17.694,-47.516l-0.004,-0.004l0.01,-0l-0.006,0.004Zm65.456,40.136c-0.27,5.3 -0.79,12.61 -6.05,18.45c-4.12,4.57 -7.96,4.83 -11.66,-0.03c-7.43,-9.75 -7.46,-20.89 -4.48,-32.19c1.96,-7.42 2.86,-7.9 10.26,-7.9c7.41,-0 7.97,0.58 10.38,7.85c1.28,3.88 1.58,7.78 1.56,13.83l-0.01,-0.01Z" style="fill:white;fill-rule:nonzero;"/>
</svg>
