<?xml version="1.0" encoding="UTF-8" standalone="no"?>
<!DOCTYPE svg PUBLIC "-//W3C//DTD SVG 1.1//EN" "http://www.w3.org/Graphics/SVG/1.1/DTD/svg11.dtd">
<svg width="100%" height="100%" viewBox="0 0 167 135" version="1.1" xmlns="http://www.w3.org/2000/svg" xmlns:xlink="http://www.w3.org/1999/xlink" xml:space="preserve" xmlns:serif="http://www.serif.com/" style="fill-rule:evenodd;clip-rule:evenodd;stroke-linejoin:round;stroke-miterlimit:2;">
    <path d="M30.301,65.879c-0.26,-2.345 -0.394,-4.734 -0.394,-7.157c-0,-32.409 24.001,-58.722 53.563,-58.722c29.562,-0 53.563,26.313 53.563,58.722c0,2.421 -0.134,4.808 -0.394,7.154c3.798,-0.082 9.12,-0.414 16.855,2.653c7.927,3.143 10.538,10.887 11.171,12.464c0.633,1.578 4.848,12.197 -0.768,12.197c-5.615,0 -5.188,-3.467 -8.619,-3.467c-3.43,-0 -5.545,4.187 -6.705,5.998c-1.161,1.812 -5.082,7.826 -8.587,8.542c-3.506,0.716 -6.648,-1.946 -9.147,-4.304c-2.499,-2.357 -4.732,-3.158 -6.045,-3.637c-1.636,2.508 -9.592,15.12 -16.72,22.249c-6.777,6.776 -14.3,15.318 -23.628,16.145c-0.212,0.044 -0.428,0.066 -0.646,0.066c-0.137,-0 -0.274,-0.002 -0.411,-0.006c-0.137,0.004 -0.274,0.006 -0.411,0.006c-0.218,-0 -0.434,-0.022 -0.647,-0.066c-9.327,-0.827 -16.851,-9.369 -23.627,-16.145c-7.129,-7.129 -15.084,-19.741 -16.72,-22.249c-1.313,0.479 -3.546,1.28 -6.045,3.637c-2.499,2.358 -5.642,5.02 -9.147,4.304c-3.506,-0.716 -7.427,-6.73 -8.587,-8.542c-1.161,-1.811 -3.275,-5.998 -6.706,-5.998c-3.43,-0 -3.003,3.467 -8.619,3.467c-5.615,0 -1.4,-10.619 -0.768,-12.197c0.633,-1.577 3.244,-9.321 11.172,-12.464c7.845,-3.111 13.209,-2.725 17.017,-2.65Zm26.712,-37.095c4.596,-1.886 11.126,3.401 14.572,11.799c3.446,8.398 2.513,16.747 -2.083,18.633c-4.596,1.886 -11.126,-3.4 -14.572,-11.798c-3.447,-8.398 -2.513,-16.748 2.083,-18.634Zm53.815,0.181c4.542,2.015 5.241,10.387 1.56,18.685c-3.681,8.298 -10.356,13.399 -14.897,11.385c-4.542,-2.014 -5.24,-10.387 -1.56,-18.685c3.681,-8.298 10.356,-13.399 14.897,-11.385Z" style="fill:white;"/>
</svg>
