<?xml version="1.0" encoding="UTF-8" standalone="no"?>
<!DOCTYPE svg PUBLIC "-//W3C//DTD SVG 1.1//EN" "http://www.w3.org/Graphics/SVG/1.1/DTD/svg11.dtd">
<svg width="100%" height="100%" viewBox="0 0 158 164" version="1.1" xmlns="http://www.w3.org/2000/svg" xmlns:xlink="http://www.w3.org/1999/xlink" xml:space="preserve" xmlns:serif="http://www.serif.com/" style="fill-rule:evenodd;clip-rule:evenodd;stroke-linejoin:round;stroke-miterlimit:2;">
    <path d="M78.672,32.69c5.404,-0.032 7.705,-2.284 9.092,-5.97c1.027,-2.726 4.735,-21.746 5.669,-24.718c0.934,-2.972 4.917,-2.419 5.843,0.242c0.926,2.661 4.299,15.395 5.64,19.681c1.341,4.285 2.314,7.657 3.055,13.252c0.74,5.595 2.562,10.815 6.038,15.628c3.477,4.814 6.13,12.047 7.187,19.247c1.057,7.199 0.558,15.995 -1.707,23.389c-2.265,7.393 -7.174,14.634 -10.45,18.565c-3.276,3.931 -7.513,12.399 -8.869,17.276c-1.357,4.878 -1.506,9.394 -1.556,13.5c-0.049,4.106 -1.046,9.063 -4.254,13.056c-3.101,3.86 -8.649,7.145 -15.264,7.36c-0.052,0.008 -0.104,0.012 -0.157,0.012l-0.535,-0c-0.052,-0 -0.105,-0.004 -0.156,-0.012c-6.616,-0.215 -12.164,-3.5 -15.265,-7.36c-3.208,-3.993 -4.205,-8.95 -4.254,-13.056c-0.049,-4.106 -0.199,-8.622 -1.555,-13.5c-1.357,-4.877 -5.594,-13.345 -8.87,-17.276c-3.276,-3.931 -8.185,-11.172 -10.45,-18.565c-2.265,-7.394 -2.764,-16.19 -1.707,-23.389c1.057,-7.2 3.71,-14.433 7.187,-19.247c3.477,-4.813 5.298,-10.033 6.039,-15.628c0.74,-5.595 1.714,-8.967 3.054,-13.252c1.341,-4.286 4.715,-17.02 5.641,-19.681c0.926,-2.661 4.908,-3.214 5.842,-0.242c0.935,2.972 4.642,21.992 5.669,24.718c1.388,3.686 3.688,5.938 9.093,5.97Zm-57.833,101.29c0,0 -18.604,-12.919 -20.642,-43.718c-2.038,-30.8 12.422,-41.772 12.422,-41.772c0,0 -0.401,9.391 0.94,15.693c1.342,6.302 3.586,10.809 6.041,13.637c2.455,2.829 4.608,4.482 6.404,8.392c1.796,3.909 3.755,10.828 5.373,15.305c1.619,4.477 2.394,5.644 2.993,6.778c0.599,1.135 0.964,2.625 -0.11,4.239c-1.074,1.614 -3.43,5.318 -5.299,8.807c-1.869,3.489 -5.286,10.109 -8.122,12.639Zm116.118,0c-0,0 18.603,-12.919 20.642,-43.718c2.038,-30.8 -12.422,-41.772 -12.422,-41.772c-0,0 0.4,9.391 -0.941,15.693c-1.341,6.302 -3.585,10.809 -6.04,13.637c-2.456,2.829 -4.608,4.482 -6.404,8.392c-1.797,3.909 -3.755,10.828 -5.374,15.305c-1.619,4.477 -2.394,5.644 -2.992,6.778c-0.599,1.135 -0.964,2.625 0.11,4.239c1.074,1.614 3.429,5.318 5.299,8.807c1.869,3.489 5.286,10.109 8.122,12.639Zm-89.728,-57.59l18.62,30.12c0,0 -11.958,0.181 -18.363,-8.722c-6.043,-8.399 -0.257,-21.398 -0.257,-21.398Zm62.885,0l-18.62,30.12c-0,0 11.959,0.181 18.364,-8.722c6.042,-8.399 0.256,-21.398 0.256,-21.398Z" style="fill:white;"/>
</svg>
