<?xml version="1.0" encoding="UTF-8" standalone="no"?>
<!DOCTYPE svg PUBLIC "-//W3C//DTD SVG 1.1//EN" "http://www.w3.org/Graphics/SVG/1.1/DTD/svg11.dtd">
<svg width="100%" height="100%" viewBox="0 0 42 106" version="1.1" xmlns="http://www.w3.org/2000/svg" xmlns:xlink="http://www.w3.org/1999/xlink" xml:space="preserve" xmlns:serif="http://www.serif.com/" style="fill-rule:evenodd;clip-rule:evenodd;stroke-linejoin:round;stroke-miterlimit:2;">
    <path id="ineffective" d="M0.96,67.932c0.14,-0.549 0.572,-0.974 1.123,-1.106c6.674,-1.612 12.741,-4.214 17.882,-7.571c0.51,-0.336 1.171,-0.336 1.681,0c5.142,3.358 11.21,5.96 17.886,7.571c0.551,0.132 0.984,0.558 1.124,1.106c0.626,2.512 0.959,5.139 0.959,7.843c-0,13.569 -8.381,25.197 -20.242,29.985c-0.363,0.145 -0.768,0.145 -1.131,0c-11.862,-4.788 -20.242,-16.416 -20.242,-29.985c0,-2.704 0.333,-5.331 0.96,-7.843Zm31.847,13.306c0,-6.623 -5.377,-12 -12,-12c-6.623,-0 -12,5.377 -12,12c0,6.623 5.377,12 12,12c6.623,-0 12,-5.377 12,-12l0,-0Zm-4.97,-4.909c0.076,-0.076 0.182,-0.114 0.289,-0.103c0.107,0.01 0.204,0.069 0.263,0.159c0.897,1.401 1.418,3.066 1.418,4.853l0,-0c0,4.967 -4.033,9 -9,9c-1.786,-0 -3.451,-0.522 -4.852,-1.421c-0.089,-0.058 -0.147,-0.154 -0.158,-0.261c-0.011,-0.106 0.027,-0.212 0.102,-0.287c1.721,-1.723 10.216,-10.218 11.938,-11.94Zm-2.178,-2.671c0.09,0.059 0.148,0.155 0.159,0.261c0.011,0.106 -0.027,0.212 -0.103,0.288c-1.721,1.722 -10.216,10.218 -11.938,11.94c-0.076,0.076 -0.182,0.114 -0.289,0.103c-0.107,-0.011 -0.203,-0.07 -0.262,-0.159c-0.897,-1.402 -1.419,-3.067 -1.419,-4.853c0,-4.968 4.033,-9 9,-9c1.787,-0 3.452,0.521 4.852,1.42Zm-14.555,-19.515c-0.213,0.102 -0.465,0.076 -0.653,-0.067c-0.188,-0.143 -0.28,-0.378 -0.239,-0.611c3.404,-19.319 7.233,-41.029 9.223,-52.317c0.117,-0.664 0.694,-1.148 1.368,-1.148c0.674,0 1.251,0.484 1.369,1.148c-0,0 7.829,44.406 9.224,52.317c0.042,0.232 -0.051,0.468 -0.239,0.611c-0.188,0.143 -0.44,0.169 -0.653,0.067c-2.993,-1.44 -5.834,-3.039 -8.5,-4.78c-0.728,-0.48 -1.671,-0.48 -2.399,-0c-2.666,1.741 -5.507,3.34 -8.501,4.78Z" style="fill:rgb(26,26,26);"/>
</svg>
