<?xml version="1.0" encoding="UTF-8" standalone="no"?>
<!DOCTYPE svg PUBLIC "-//W3C//DTD SVG 1.1//EN" "http://www.w3.org/Graphics/SVG/1.1/DTD/svg11.dtd">
<svg width="100%" height="100%" viewBox="0 0 42 106" version="1.1" xmlns="http://www.w3.org/2000/svg" xmlns:xlink="http://www.w3.org/1999/xlink" xml:space="preserve" xmlns:serif="http://www.serif.com/" style="fill-rule:evenodd;clip-rule:evenodd;stroke-linejoin:round;stroke-miterlimit:2;">
    <path id="very_ineffective" d="M0.96,67.932c0.14,-0.549 0.572,-0.974 1.123,-1.106c6.674,-1.612 12.741,-4.214 17.882,-7.571c0.51,-0.336 1.171,-0.336 1.681,0c5.142,3.358 11.21,5.96 17.886,7.571c0.551,0.132 0.984,0.558 1.124,1.106c0.626,2.512 0.959,5.139 0.959,7.843c-0,13.569 -8.381,25.197 -20.242,29.985c-0.363,0.145 -0.768,0.145 -1.131,0c-11.862,-4.788 -20.242,-16.416 -20.242,-29.985c-0,-2.704 0.333,-5.331 0.96,-7.843Zm22.295,10.739l0,-6.901c0,-0.304 -0.121,-0.596 -0.336,-0.811c-0.215,-0.216 -0.507,-0.337 -0.811,-0.337c-0.785,0 -1.822,0 -2.607,0c-0.305,0 -0.597,0.121 -0.812,0.337c-0.215,0.215 -0.336,0.507 -0.336,0.811c0,2.223 0,6.901 0,6.901l-6.901,0c-0.305,0 -0.596,0.121 -0.812,0.337c-0.215,0.215 -0.336,0.507 -0.336,0.811c0,0.785 0,1.822 0,2.607c0,0.304 0.121,0.596 0.336,0.811c0.216,0.216 0.507,0.337 0.812,0.337c2.223,-0 6.901,-0 6.901,-0l0,6.901c0,0.304 0.121,0.596 0.336,0.811c0.215,0.216 0.507,0.336 0.812,0.336c0.785,0 1.822,0 2.607,0c0.304,0 0.596,-0.12 0.811,-0.336c0.215,-0.215 0.336,-0.507 0.336,-0.811c0,-2.224 0,-6.901 0,-6.901l6.902,-0c0.304,-0 0.596,-0.121 0.811,-0.337c0.215,-0.215 0.336,-0.507 0.336,-0.811c0,-0.785 0,-1.822 0,-2.607c0,-0.304 -0.121,-0.596 -0.336,-0.811c-0.215,-0.216 -0.507,-0.337 -0.811,-0.337c-2.224,0 -6.902,0 -6.902,0Zm-12.151,-24.528c-0.213,0.102 -0.465,0.076 -0.653,-0.067c-0.188,-0.143 -0.28,-0.378 -0.239,-0.611c3.404,-19.319 7.233,-41.029 9.223,-52.317c0.117,-0.664 0.694,-1.148 1.368,-1.148c0.674,-0 1.251,0.484 1.369,1.148c-0,0 7.829,44.406 9.224,52.317c0.042,0.232 -0.051,0.468 -0.239,0.611c-0.188,0.143 -0.44,0.169 -0.653,0.067c-2.993,-1.44 -5.834,-3.039 -8.5,-4.78c-0.728,-0.48 -1.671,-0.48 -2.399,-0c-2.666,1.741 -5.507,3.34 -8.501,4.78Z" style="fill:rgb(26,26,26);"/>
</svg>
