<?xml version="1.0" encoding="UTF-8" standalone="no"?>
<!DOCTYPE svg PUBLIC "-//W3C//DTD SVG 1.1//EN" "http://www.w3.org/Graphics/SVG/1.1/DTD/svg11.dtd">
<svg width="100%" height="100%" viewBox="0 0 33 94" version="1.1" xmlns="http://www.w3.org/2000/svg" xmlns:xlink="http://www.w3.org/1999/xlink" xml:space="preserve" xmlns:serif="http://www.serif.com/" style="fill-rule:evenodd;clip-rule:evenodd;stroke-linejoin:round;stroke-miterlimit:2;">
    <path id="very_effective" d="M32.656,85.766c0.274,1.55 -0.104,3.143 -1.044,4.405c-0.939,1.262 -2.358,2.081 -3.921,2.264c-3.718,0.412 -7.495,0.628 -11.323,0.628c-3.828,0 -7.606,-0.216 -11.323,-0.637c-1.561,-0.182 -2.977,-1 -3.916,-2.26c-0.938,-1.26 -1.315,-2.851 -1.042,-4.399c2.955,-16.807 11.552,-65.564 14.912,-84.619c0.117,-0.664 0.694,-1.148 1.369,-1.148c0.674,0 1.251,0.484 1.368,1.148c3.36,19.055 11.957,67.812 14.92,84.618Zm-13.833,-11.024l-0,-6.902c-0,-0.304 -0.121,-0.596 -0.336,-0.811c-0.216,-0.215 -0.508,-0.336 -0.812,-0.336c-0.785,-0 -1.822,-0 -2.607,-0c-0.304,-0 -0.596,0.121 -0.811,0.336c-0.216,0.215 -0.336,0.507 -0.336,0.811c-0,2.224 -0,6.902 -0,6.902l-6.902,-0c-0.304,-0 -0.596,0.121 -0.811,0.336c-0.216,0.215 -0.336,0.507 -0.336,0.811c-0,0.786 -0,1.822 -0,2.607c-0,0.305 0.12,0.597 0.336,0.812c0.215,0.215 0.507,0.336 0.811,0.336c2.224,-0 6.902,-0 6.902,-0l-0,6.901c-0,0.305 0.12,0.596 0.336,0.812c0.215,0.215 0.507,0.336 0.811,0.336c0.785,-0 1.822,-0 2.607,-0c0.304,-0 0.596,-0.121 0.812,-0.336c0.215,-0.216 0.336,-0.507 0.336,-0.812c-0,-2.223 -0,-6.901 -0,-6.901l6.901,-0c0.304,-0 0.596,-0.121 0.811,-0.336c0.216,-0.215 0.337,-0.507 0.337,-0.812c-0,-0.785 -0,-1.821 -0,-2.607c-0,-0.304 -0.121,-0.596 -0.337,-0.811c-0.215,-0.215 -0.507,-0.336 -0.811,-0.336c-2.223,-0 -6.901,-0 -6.901,-0Z" style="fill:rgb(26,26,26);"/>
</svg>
