<?xml version="1.0" encoding="UTF-8" standalone="no"?>
<!DOCTYPE svg PUBLIC "-//W3C//DTD SVG 1.1//EN" "http://www.w3.org/Graphics/SVG/1.1/DTD/svg11.dtd">
<svg width="100%" height="100%" viewBox="0 0 42 47" version="1.1" xmlns="http://www.w3.org/2000/svg" xmlns:xlink="http://www.w3.org/1999/xlink" xml:space="preserve" xmlns:serif="http://www.serif.com/" style="fill-rule:evenodd;clip-rule:evenodd;stroke-linejoin:round;stroke-miterlimit:2;">
    <path d="M0.038,8.597c1.648,-0.104 2.952,-1.436 3.024,-3.09c6.474,-0.465 12.544,-2.407 17.877,-5.491c0.038,-0.021 0.084,-0.021 0.122,0c5.333,3.084 11.403,5.026 17.877,5.495c0.067,1.652 1.371,2.985 3.017,3.086c0.032,0.599 0.045,1.201 0.045,1.806c-0,15.546 -8.423,29.135 -20.939,36.427c-0.038,0.022 -0.084,0.022 -0.122,-0c-12.516,-7.292 -20.939,-20.881 -20.939,-36.427c-0,-0.605 0.013,-1.207 0.038,-1.806Zm32.962,11.622c-0,-6.623 -5.377,-12 -12,-12c-6.623,-0 -12,5.377 -12,12c-0,6.623 5.377,12 12,12c6.623,-0 12,-5.377 12,-12Zm-4.97,-4.909c0.076,-0.076 0.182,-0.114 0.289,-0.103c0.107,0.01 0.204,0.069 0.263,0.159c0.897,1.401 1.418,3.066 1.418,4.853c-0,4.967 -4.033,9 -9,9c-1.786,-0 -3.451,-0.522 -4.852,-1.421c-0.089,-0.058 -0.147,-0.154 -0.158,-0.261c-0.011,-0.106 0.027,-0.212 0.102,-0.287c1.721,-1.723 10.216,-10.218 11.938,-11.94Zm-2.178,-2.671c0.09,0.059 0.148,0.155 0.159,0.261c0.011,0.106 -0.027,0.212 -0.103,0.288c-1.721,1.722 -10.216,10.218 -11.938,11.94c-0.076,0.076 -0.182,0.114 -0.289,0.103c-0.107,-0.011 -0.203,-0.07 -0.262,-0.159c-0.897,-1.402 -1.419,-3.067 -1.419,-4.853c-0,-4.968 4.033,-9 9,-9c1.787,-0 3.452,0.521 4.852,1.42Z"/>
</svg>
