<?xml version="1.0" encoding="UTF-8" standalone="no"?>
<!DOCTYPE svg PUBLIC "-//W3C//DTD SVG 1.1//EN" "http://www.w3.org/Graphics/SVG/1.1/DTD/svg11.dtd">
<svg width="100%" height="100%" viewBox="0 0 42 47" version="1.1" xmlns="http://www.w3.org/2000/svg" xmlns:xlink="http://www.w3.org/1999/xlink" xml:space="preserve" xmlns:serif="http://www.serif.com/" style="fill-rule:evenodd;clip-rule:evenodd;stroke-linejoin:round;stroke-miterlimit:2;">
    <path d="M0.038,8.597c1.648,-0.104 2.952,-1.436 3.024,-3.09c6.474,-0.465 12.544,-2.407 17.877,-5.491c0.038,-0.021 0.084,-0.021 0.122,0c5.333,3.084 11.403,5.026 17.877,5.495c0.067,1.652 1.371,2.985 3.017,3.086c0.032,0.599 0.045,1.201 0.045,1.806c-0,15.546 -8.423,29.135 -20.939,36.427c-0.038,0.022 -0.084,0.022 -0.122,-0c-12.516,-7.292 -20.939,-20.881 -20.939,-36.427c-0,-0.605 0.013,-1.207 0.038,-1.806Z"/>
</svg>
