<?xml version="1.0" encoding="UTF-8" standalone="no"?>
<!DOCTYPE svg PUBLIC "-//W3C//DTD SVG 1.1//EN" "http://www.w3.org/Graphics/SVG/1.1/DTD/svg11.dtd">
<svg width="100%" height="100%" viewBox="0 0 561 572" version="1.1" xmlns="http://www.w3.org/2000/svg" xmlns:xlink="http://www.w3.org/1999/xlink" xml:space="preserve" xmlns:serif="http://www.serif.com/" style="fill-rule:evenodd;clip-rule:evenodd;stroke-linejoin:round;stroke-miterlimit:2;">
    <path d="M88.864,83.673c7.73,-26.52 18.891,-57.149 42.987,-83.233l0.4,-0.44l0.36,0.48c3.62,4.79 4.38,9.57 5.12,14.2c0.13,0.8 0.26,1.59 0.4,2.38c2.693,15.064 1.153,30.517 -0.253,44.2l0.013,-0l-0,0.49c-0.197,11.027 -1.83,21.978 -4.858,32.577c-0.084,0.713 -0.342,1.448 -0.622,2.133c-1.55,11.44 -5.31,22.08 -9.28,33.34c-0.793,2.227 -1.58,4.477 -2.36,6.75c4.377,-0.198 8.714,-0.92 12.92,-2.15c2.806,-0.763 5.654,-1.364 8.53,-1.8c28.47,-3.82 53.62,-1.58 76.9,6.84c6.39,2.31 10.72,1.81 16,-1.84c22.74,-15.73 48.56,-28 78.95,-37.67c1.111,-0.314 2.25,-0.525 3.4,-0.63c0.5,-0.06 1,-0.12 1.48,-0.2c0.375,-0.229 0.797,-0.356 1.225,-0.378l0.077,-0.027c2.874,-0.993 5.768,-1.926 8.681,-2.797c5.481,-1.639 11.028,-3.059 16.623,-4.256c5.595,-1.196 11.238,-2.169 16.91,-2.916c3.015,-0.397 6.038,-0.729 9.067,-0.998l0.076,-0.007l0.011,-0.011l0.116,-0c0.038,-0.003 0.076,-0.007 0.114,-0.01l0.021,0l-0.081,0.01c22.05,-2.71 39.91,-2.13 56.23,1.76l0.37,0.08l-0,0.38c0.27,5.48 -2.7,8.63 -5.32,11.41l-0.14,0.15c-16.946,18.062 -38.124,34.157 -64.633,49.194l-0.017,0.036c-1.83,2.53 -4.53,3.59 -7.14,4.61c-0.77,0.3 -1.57,0.62 -2.31,1c-23.277,10.686 -47.802,18.413 -73,23c-0.48,1.8 0.24,3.37 1,5c0.25,0.54 0.5,1.08 0.7,1.63c4.6,12.09 7.9,25.32 10.38,41.63c2.87,18.93 9.94,37.67 21.59,57.28c9.72,16.35 21.35,31.25 34.45,47.64c2.76,3.44 5.53,6.877 8.31,10.31c12.92,16 26.28,32.48 37.2,50.4c1.007,1.648 2.068,2.781 3.883,2.975c1.903,-1.97 4.276,-2.963 6.777,-4.035c2.131,-0.814 4.147,-1.9 6,-3.23l-12.545,-14.157l-0.015,-0.013c-4.997,-4.47 -9.725,-9.232 -14.16,-14.26c-3.29,-3.59 -6.69,-7.3 -10.26,-10.71c-1.78,-1.7 -2.56,-3.14 -2.45,-4.53c0.13,-1.74 1.61,-3.12 3.79,-4.66c7.54,-5.32 15.11,-10.86 22.44,-16.22c3.027,-2.22 6.06,-4.437 9.1,-6.65l2,-1.46c1.73,-1.28 3.52,-2.6 5.35,-3.8c3.07,-2 3.6,-3.83 1.94,-6.75c-1.49,-2.64 -2.74,-5.45 -3.95,-8.17c-0.53,-1.2 -1.06,-2.39 -1.62,-3.58c-9.41,-20.16 -17.71,-38.62 -25.37,-56.44c-4.37,-10.16 -3.22,-17.88 4.1,-27.56c23.2,-30.68 50.74,-60.11 86.67,-92.64c13.32,-12.07 27.11,-24 40.45,-35.65c5.547,-4.82 11.087,-9.647 16.62,-14.48c1.23,-1.08 2.5,-2.05 3.62,-2.91l1.35,-1.04l0.15,-0c2.88,-0.18 3.71,1.44 4.09,2.67c12.68,41 20.19,78.68 23,115.31c0.7,9.17 -1.91,14.31 -9.61,19c-23.35,14.13 -46.83,29 -69.54,43.29c-7.88,4.973 -15.76,9.937 -23.64,14.89c-7.73,4.86 -7.73,4.86 -6.52,13.19l0.08,0.59c1.15,7.93 2.23,16 3.28,23.81c1.13,8.4 2.3,17.09 3.55,25.62c0.69,4.74 -1.88,7.26 -4.8,9.63c-4.38,3.56 -8.743,7.13 -13.09,10.71c-4.66,3.82 -9.31,7.65 -14,11.44l-1.33,1.07c-3.32,2.67 -5,4 -5.08,5.45c-0.08,1.45 1.4,3.38 4.35,7.17l0.19,0.24c3.54,4.55 7,9.28 10.34,13.85c1.451,1.997 2.908,3.984 4.372,5.963l11.688,14.737l-0.57,0.27c-16.791,7.863 -30.095,13.467 -43.116,18.174l-0.024,0.016c-1.6,1.1 -2.42,2.14 -2.52,3.2c-0.1,1.06 0.59,2.36 2.09,3.85c4.07,4 7.88,8.17 11.91,12.55c1.66,1.79 3.33,3.6 5,5.41l0.25,0.27l-0.18,0.31c-1.5,2.74 -4.57,2.79 -7.6,2.56l-0,0.04l-0.144,-0c-6.883,1.938 -8.802,6.82 -9.616,14.06c-1.283,11.244 -4.537,22.174 -9.61,32.29c-2.299,4.708 -3.297,9.947 -2.89,15.17c0.09,1.83 0.17,3.66 0.25,5.49c0.58,12.87 1.18,26.17 4.06,38.94c1,4.33 -0.68,7.57 -2.29,10.7c-0.892,1.582 -1.603,3.259 -2.12,5c-0.105,0.518 -0.445,0.958 -0.92,1.19c-0.265,0.149 -0.558,0.241 -0.86,0.27c-0.807,-0.052 -1.594,-0.273 -2.31,-0.65c-14.44,-7 -15.45,-8.12 -21.52,-23.7c-1.89,-4.83 -3.51,-9.82 -4.88,-14.12c-0.46,-1.45 -0.82,-2.67 -1.12,-3.71c-1.52,-5.17 -1.52,-5.17 -6.72,-5c-1,-0 -2.09,0.05 -3.42,0.05c-12.594,-0.025 -25.045,-2.677 -36.554,-7.784l-0.136,0.024l-0.09,0c-9.25,-1.73 -18.15,-5 -26.76,-8.21c-2.14,-0.79 -4.27,-1.58 -6.4,-2.35c-8.612,-3.324 -18.174,-3.246 -26.73,0.22c-8.087,3.034 -16.333,5.628 -24.7,7.77c-3.86,1 -5.64,2.88 -6.58,6.87c-1.851,8.402 -3.22,16.902 -4.1,25.46c-0.92,8 -3.64,11.43 -9.69,12.26c-0.376,0.023 -0.754,0.023 -1.13,0c-5.38,-0 -11.86,-4.53 -13.64,-9.8c-1,-3 -1.79,-6.1 -2.55,-9.11c-0.6,-2.36 -1.22,-4.81 -1.94,-7.18c-0.341,-1.235 -0.579,-2.496 -0.71,-3.77c-0.336,-2.599 -0.662,-5.061 -2.686,-6.933l0.206,0.023c-22.48,-2.42 -39.86,-17.92 -46.48,-41.46c-2,-7 -2.09,-14.18 -2.21,-21.14l-0,-0.73c-0.08,-4.63 -0,-9.34 0.09,-13.89c0.21,-11.12 0.42,-22.62 -1.82,-33.81c-0.18,-0.89 -0.34,-1.78 -0.5,-2.67c-0.2,-1.07 -0.39,-2.13 -0.61,-3.19c-0.64,-3.05 -2.25,-4.11 -6,-3.91c-27.71,1.45 -56.35,-2.57 -87.55,-12.28c-2.65,-0.82 -5.31,-1.75 -7.89,-2.65c-8.46,-2.95 -17.21,-6 -26.69,-5.78l-0.51,-0l-0,-0.49c0.01,-1.14 0.087,-2.279 0.23,-3.41c0.39,-3.53 0.69,-6.32 -3.25,-8c-0.833,-0.36 -1.437,-1.109 -1.61,-2c-0.265,-1.118 -0.003,-2.299 0.71,-3.2c3,-3.53 1.65,-6 -1.21,-8.74c-1.68,-1.52 -2.44,-3.12 -2.28,-4.65c0.16,-1.53 1.32,-3 3.29,-4.1c3.8,-2.17 4.42,-4.4 2.29,-8.23c-1.41,-2.53 -1,-4.17 -0.47,-5.11c0.85,-1.4 2.66,-2.14 5,-2.08c7.89,0.13 14.48,-3.23 20.89,-6.48c1.61,-0.82 3.27,-1.66 4.93,-2.44c10.75,-5.06 21.94,-8.37 33.78,-11.87l4.72,-1.4c-0.788,-1.951 -2.058,-3.672 -3.69,-5c-0.5,-0.48 -1,-1 -1.49,-1.5c-9.3,-10.21 -15.55,-19.39 -19.69,-28.87l-0.4,-0.92c-1.353,-3.043 -2.744,-6.185 -2.327,-9.789c-3.318,-8.366 -2.731,-17.322 1.857,-28.191c1.852,-4.299 4.045,-8.442 6.56,-12.39c4.465,-6.931 7.082,-14.892 7.6,-23.12c0.722,-10.128 4.382,-19.829 10.53,-27.91c3,-4.09 4.23,-8.43 4.09,-14.51c-0.54,-23.361 2.674,-46.658 9.52,-69l0.1,-0.32c0.218,-1.203 0.838,-2.294 1.753,-3.097Z" style="fill:rgb(15,12,8);fill-rule:nonzero;"/>
</svg>
